<svg width="13" height="13" viewBox="0 0 13 13" fill="none" xmlns="http://www.w3.org/2000/svg">
<path d="M1.25176 10.8245C1.38272 10.8367 1.51481 10.823 1.64046 10.7841C1.76611 10.7452 1.88286 10.6819 1.98401 10.5979C2.08517 10.5138 2.16874 10.4106 2.22994 10.2942C2.29115 10.1777 2.32879 10.0504 2.3407 9.91938L2.85689 4.2696L11.2432 12.6559C11.4307 12.8434 11.6851 12.9488 11.9503 12.9488C12.2155 12.9488 12.4699 12.8434 12.6574 12.6559C12.8449 12.4683 12.9503 12.214 12.9503 11.9488C12.9503 11.6836 12.8449 11.4292 12.6574 11.2417L4.2711 2.85539L9.92089 2.3392C10.0518 2.32712 10.1791 2.28938 10.2954 2.22813C10.4118 2.16687 10.5149 2.08329 10.599 1.98218C10.683 1.88106 10.7463 1.76438 10.7853 1.63879C10.8242 1.51321 10.8381 1.38118 10.826 1.25025C10.8139 1.11932 10.7762 0.992051 10.7149 0.875706C10.6537 0.759362 10.5701 0.656222 10.469 0.572176C10.3678 0.488131 10.2512 0.424824 10.1256 0.385871C9.99999 0.346919 9.86797 0.333084 9.73704 0.345156L1.95886 1.05226L1.78916 1.09469L1.64774 1.13712C1.4207 1.23772 1.23922 1.4192 1.13862 1.64623L1.09619 1.78765L1.05377 1.95736L0.346659 9.73553C0.33442 9.8665 0.348136 9.99859 0.387024 10.1242C0.425912 10.2499 0.489206 10.3666 0.573281 10.4678C0.657357 10.5689 0.760562 10.6525 0.876986 10.7137C0.99341 10.7749 1.12076 10.8126 1.25176 10.8245Z" fill="#9FA5C0"/>
</svg>
